HIERARCHY
ROOT hip
{
  OFFSET 0 90.174 2.4664
  CHANNELS 6 Xposition Yposition Zposition Zrotation Xrotation Yrotation
  JOINT abdomen
  {
    OFFSET 0 -1.186 -1.5018
    CHANNELS 6 Xposition Yposition Zposition Zrotation Xrotation Yrotation
    JOINT abdomen2
    {
      OFFSET 0 9.964 0.2134
      CHANNELS 6 Xposition Yposition Zposition Zrotation Xrotation Yrotation
      JOINT chest
      {
        OFFSET 0 13.134 -3.2573
        CHANNELS 6 Xposition Yposition Zposition Zrotation Xrotation Yrotation
        JOINT neck
        {
          OFFSET 0 20.686 -1.6905
          CHANNELS 6 Xposition Yposition Zposition Zrotation Xrotation Yrotation
          JOINT head
          {
            OFFSET 0 7.238 -0.1237
            CHANNELS 6 Xposition Yposition Zposition Zrotation Xrotation Yrotation
            End Site
            {
              OFFSET 0 0 0
            }
          }
        }
        JOINT lCollar
        {
          OFFSET 1.7069 20.075 5.0056
          CHANNELS 6 Xposition Yposition Zposition Zrotation Xrotation Yrotation
          JOINT lShldr
          {
            OFFSET 13.6458 -0.047 -4.849
            CHANNELS 6 Xposition Yposition Zposition Zrotation Xrotation Yrotation
            JOINT lForeArm
            {
              OFFSET 28.3255 -0.9759 2.2888
              CHANNELS 6 Xposition Yposition Zposition Zrotation Xrotation Yrotation
              JOINT lHand
              {
                OFFSET 22.1583 -0.53 10.8316
                CHANNELS 6 Xposition Yposition Zposition Zrotation Xrotation Yrotation
                JOINT lThumb1
                {
                  OFFSET 0.786 0.112 2.5817
                  CHANNELS 6 Xposition Yposition Zposition Zrotation Xrotation Yrotation
                  JOINT lThumb2
                  {
                    OFFSET 0.3601 -0.878 4.2331
                    CHANNELS 6 Xposition Yposition Zposition Zrotation Xrotation Yrotation
                    JOINT lThumb2_End
                    {
                      OFFSET 1.8127 -1.216 2.2227
                      CHANNELS 6 Xposition Yposition Zposition Zrotation Xrotation Yrotation
                      End Site
                      {
                        OFFSET 0.0181 -0.0122 0.0222
                      }
                    }
                  }
                }
                JOINT lCarpal1
                {
                  OFFSET 0.9571 1.114 1.7695
                  CHANNELS 6 Xposition Yposition Zposition Zrotation Xrotation Yrotation
                  JOINT lIndex1
                  {
                    OFFSET 4.1246 0.487 4.1451
                    CHANNELS 6 Xposition Yposition Zposition Zrotation Xrotation Yrotation
                    JOINT lIndex2
                    {
                      OFFSET 3.4052 -1.454 2.7682
                      CHANNELS 6 Xposition Yposition Zposition Zrotation Xrotation Yrotation
                      JOINT lIndex2_End
                      {
                        OFFSET 1.4531 -1.795 1.2713
                        CHANNELS 6 Xposition Yposition Zposition Zrotation Xrotation Yrotation
                        End Site
                        {
                          OFFSET 0.0145 -0.0179 0.0127
                        }
                      }
                    }
                  }
                  JOINT lMid1
                  {
                    OFFSET 5.6954 0.21 2.1184
                    CHANNELS 6 Xposition Yposition Zposition Zrotation Xrotation Yrotation
                    JOINT lMid2
                    {
                      OFFSET 3.9766 -1.54 2.3863
                      CHANNELS 6 Xposition Yposition Zposition Zrotation Xrotation Yrotation
                      JOINT lMid2_End
                      {
                        OFFSET 1.4042 -1.926 1.125
                        CHANNELS 6 Xposition Yposition Zposition Zrotation Xrotation Yrotation
                        End Site
                        {
                          OFFSET 0.014 -0.0193 0.0113
                        }
                      }
                    }
                  }
                }
                JOINT lCarpal2
                {
                  OFFSET 2.0956 0.66 -0.3894
                  CHANNELS 6 Xposition Yposition Zposition Zrotation Xrotation Yrotation
                  JOINT lRing1
                  {
                    OFFSET 5.0395 -0.09 2.4971
                    CHANNELS 6 Xposition Yposition Zposition Zrotation Xrotation Yrotation
                    JOINT lRing2
                    {
                      OFFSET 3.7921 -1.552 1.4806
                      CHANNELS 6 Xposition Yposition Zposition Zrotation Xrotation Yrotation
                      JOINT lRing2_End
                      {
                        OFFSET 1.4655 -1.808 0.9609
                        CHANNELS 6 Xposition Yposition Zposition Zrotation Xrotation Yrotation
                        End Site
                        {
                          OFFSET 0.0147 -0.0181 0.0096
                        }
                      }
                    }
                  }
                  JOINT lPinky1
                  {
                    OFFSET 4.9141 -1.269 0.3591
                    CHANNELS 6 Xposition Yposition Zposition Zrotation Xrotation Yrotation
                    JOINT lPinky2
                    {
                      OFFSET 3.1477 -1.685 0.8462
                      CHANNELS 6 Xposition Yposition Zposition Zrotation Xrotation Yrotation
                      JOINT lPinky2_End
                      {
                        OFFSET 0.8055 -1.585 0.7955
                        CHANNELS 6 Xposition Yposition Zposition Zrotation Xrotation Yrotation
                        End Site
                        {
                          OFFSET 0.0081 -0.0158 0.008
                        }
                      }
                    }
                  }
                }
              }
            }
          }
        }
        JOINT rCollar
        {
          OFFSET -1.7069 20.075 5.0056
          CHANNELS 6 Xposition Yposition Zposition Zrotation Xrotation Yrotation
          JOINT rShldr
          {
            OFFSET -13.6458 -0.047 -4.849
            CHANNELS 6 Xposition Yposition Zposition Zrotation Xrotation Yrotation
            JOINT rForeArm
            {
              OFFSET -28.3255 -0.9759 2.2888
              CHANNELS 6 Xposition Yposition Zposition Zrotation Xrotation Yrotation
              JOINT rHand
              {
                OFFSET -22.1583 -0.53 10.8316
                CHANNELS 6 Xposition Yposition Zposition Zrotation Xrotation Yrotation
                JOINT rThumb1
                {
                  OFFSET -0.786 0.112 2.5817
                  CHANNELS 6 Xposition Yposition Zposition Zrotation Xrotation Yrotation
                  JOINT rThumb2
                  {
                    OFFSET -0.3601 -0.878 4.2331
                    CHANNELS 6 Xposition Yposition Zposition Zrotation Xrotation Yrotation
                    JOINT rThumb2_End
                    {
                      OFFSET -1.8127 -1.216 2.2227
                      CHANNELS 6 Xposition Yposition Zposition Zrotation Xrotation Yrotation
                      End Site
                      {
                        OFFSET -0.0181 -0.0122 0.0222
                      }
                    }
                  }
                }
                JOINT rCarpal1
                {
                  OFFSET -0.9571 1.114 1.7695
                  CHANNELS 6 Xposition Yposition Zposition Zrotation Xrotation Yrotation
                  JOINT rIndex1
                  {
                    OFFSET -4.1246 0.487 4.1451
                    CHANNELS 6 Xposition Yposition Zposition Zrotation Xrotation Yrotation
                    JOINT rIndex2
                    {
                      OFFSET -3.4052 -1.454 2.7682
                      CHANNELS 6 Xposition Yposition Zposition Zrotation Xrotation Yrotation
                      JOINT rIndex2_End
                      {
                        OFFSET -1.4531 -1.795 1.2713
                        CHANNELS 6 Xposition Yposition Zposition Zrotation Xrotation Yrotation
                        End Site
                        {
                          OFFSET -0.0145 -0.018 0.0127
                        }
                      }
                    }
                  }
                  JOINT rMid1
                  {
                    OFFSET -5.6954 0.21 2.1184
                    CHANNELS 6 Xposition Yposition Zposition Zrotation Xrotation Yrotation
                    JOINT rMid2
                    {
                      OFFSET -3.9766 -1.54 2.3863
                      CHANNELS 6 Xposition Yposition Zposition Zrotation Xrotation Yrotation
                      JOINT rMid2_End
                      {
                        OFFSET -1.4042 -1.926 1.125
                        CHANNELS 6 Xposition Yposition Zposition Zrotation Xrotation Yrotation
                        End Site
                        {
                          OFFSET -0.014 -0.0193 0.0113
                        }
                      }
                    }
                  }
                }
                JOINT rCarpal2
                {
                  OFFSET -2.0956 0.66 -0.3894
                  CHANNELS 6 Xposition Yposition Zposition Zrotation Xrotation Yrotation
                  JOINT rRing1
                  {
                    OFFSET -5.0395 -0.09 2.4971
                    CHANNELS 6 Xposition Yposition Zposition Zrotation Xrotation Yrotation
                    JOINT rRing2
                    {
                      OFFSET -3.7921 -1.552 1.4806
                      CHANNELS 6 Xposition Yposition Zposition Zrotation Xrotation Yrotation
                      JOINT rRing2_End
                      {
                        OFFSET -1.4655 -1.808 0.9609
                        CHANNELS 6 Xposition Yposition Zposition Zrotation Xrotation Yrotation
                        End Site
                        {
                          OFFSET -0.0147 -0.0181 0.0096
                        }
                      }
                    }
                  }
                  JOINT rPinky1
                  {
                    OFFSET -4.9141 -1.269 0.3592
                    CHANNELS 6 Xposition Yposition Zposition Zrotation Xrotation Yrotation
                    JOINT rPinky2
                    {
                      OFFSET -3.1477 -1.685 0.8462
                      CHANNELS 6 Xposition Yposition Zposition Zrotation Xrotation Yrotation
                      JOINT rPinky2_End
                      {
                        OFFSET -0.8055 -1.585 0.7955
                        CHANNELS 6 Xposition Yposition Zposition Zrotation Xrotation Yrotation
                        End Site
                        {
                          OFFSET -0.0081 -0.0158 0.008
                        }
                      }
                    }
                  }
                }
              }
            }
          }
        }
      }
    }
  }
  JOINT lThigh
  {
    OFFSET 8.367 -8.2066 0.5982
    CHANNELS 6 Xposition Yposition Zposition Zrotation Xrotation Yrotation
    JOINT lShin
    {
      OFFSET 2.1923 -43.463 -0.4932
      CHANNELS 6 Xposition Yposition Zposition Zrotation Xrotation Yrotation
      JOINT lFoot
      {
        OFFSET 0.7333 -45.8593 -2.6451
        CHANNELS 6 Xposition Yposition Zposition Zrotation Xrotation Yrotation
        End Site
        {
          OFFSET 2.6618 -4.2699 12.3931
        }
      }
    }
  }
  JOINT rThigh
  {
    OFFSET -8.367 -8.2066 0.5982
    CHANNELS 6 Xposition Yposition Zposition Zrotation Xrotation Yrotation
    JOINT rShin
    {
      OFFSET -2.1923 -43.463 -0.4931
      CHANNELS 6 Xposition Yposition Zposition Zrotation Xrotation Yrotation
      JOINT rFoot
      {
        OFFSET -0.7333 -45.8593 -2.6451
        CHANNELS 6 Xposition Yposition Zposition Zrotation Xrotation Yrotation
        End Site
        {
          OFFSET -2.6618 -4.2699 12.3931
        }
      }
    }
  }
}
MOTION
Frames:	4
Frame Time:	0.0333333
-0.0424857 87.2167 6.23816 0 22.2969 -0 0 -1.186 -1.5018 -0.24765 1.53856 -0.179993 5.55112e-017 9.964 0.2134 -0.490728 3.07787 -0.353521 0 13.134 -3.2573 -0.490728 3.07788 -0.353521 4.44089e-016 20.686 -1.6905 6.73962e-006 6.99695 4.35256e-006 -4.44089e-016 7.238 -0.1237 1.28066e-007 9.90092 -2.22676e-007 1.7069 20.075 5.0056 5.39002 13.3704 5.14552 13.6458 -0.047 -4.849 -76.2534 -1.8177 7.20031 28.3255 -0.9759 2.2888 -25.9659 6.99945 21.7435 22.1583 -0.53 10.8316 5.53929 3.04469 -28.5978 0.786 0.112 2.5817 -1.19271e-015 -1.19271e-015 9.54166e-015 0.3601 -0.878 4.2331 3.31043e-032 -1.98785e-016 9.54166e-015 1.8127 -1.216 2.2227 1.59028e-015 -5.96354e-016 -3.18055e-015 0.9571 1.114 1.7695 -1.19271e-015 -7.95139e-016 9.54166e-015 4.1246 0.487 4.1451 -1.98785e-016 -7.95139e-016 1.90833e-014 3.4052 -1.454 2.7682 -0 0 6.36111e-015 1.4531 -1.795 1.2713 -3.97569e-016 -1.98785e-016 9.54166e-015 5.6954 0.21 2.1184 -1.98785e-016 -7.95139e-016 1.90833e-014 3.9766 -1.54 2.3863 -0 0 6.36111e-015 1.4042 -1.926 1.125 -3.97569e-016 -1.98785e-016 9.54166e-015 2.0956 0.66 -0.3894 -1.19271e-015 -7.95139e-016 9.54166e-015 5.0395 -0.09 2.4971 -1.98785e-016 -7.95139e-016 1.90833e-014 3.7921 -1.552 1.4806 -0 0 6.36111e-015 1.4655 -1.808 0.9609 -3.97569e-016 -1.98785e-016 9.54166e-015 4.9141 -1.269 0.3591 -1.98785e-016 -7.95139e-016 1.90833e-014 3.1477 -1.685 0.8462 -0 0 6.36111e-015 0.8055 -1.585 0.7955 -3.97569e-016 -1.98785e-016 9.54166e-015 -1.7069 20.075 5.0056 2.55148 3.24568 7.0404 -13.6458 -0.047 -4.849 71.0599 29.3696 16.8803 -28.3255 -0.9759 2.2888 -2.39692 7.10325 20.8777 -22.1583 -0.53 10.8316 9.29835 -28.2894 -2.31461 -0.786 0.112 2.5817 3.97569e-015 3.18055e-015 3.18055e-015 -0.3601 -0.878 4.2331 -1.05373e-007 -1.04028e-006 1.32029e-006 -1.8127 -1.216 2.2227 -3.97569e-015 0 -0 -0.9571 1.114 1.7695 2.38542e-015 0 3.18055e-015 -4.1246 0.487 4.1451 1.59028e-015 3.18055e-015 7.95139e-015 -3.4052 -1.454 2.7682 -1.05373e-007 -1.04028e-006 1.32029e-006 -1.4531 -1.795 1.2713 -2.78299e-015 3.18055e-015 -0 -5.6954 0.21 2.1184 1.59028e-015 3.18055e-015 7.95139e-015 -3.9766 -1.54 2.3863 -1.05373e-007 -1.04028e-006 1.32029e-006 -1.4042 -1.926 1.125 -2.78299e-015 3.18055e-015 -0 -2.0956 0.66 -0.3894 2.38542e-015 0 3.18055e-015 -5.0395 -0.09 2.4971 1.59028e-015 3.18055e-015 7.95139e-015 -3.7921 -1.552 1.4806 -1.05373e-007 -1.04028e-006 1.32029e-006 -1.4655 -1.808 0.9609 -2.78299e-015 3.18055e-015 -0 -4.9141 -1.269 0.3592 1.59028e-015 3.18055e-015 7.95139e-015 -3.1477 -1.685 0.8462 -1.05373e-007 -1.04028e-006 1.32029e-006 -0.8055 -1.585 0.7955 -2.78299e-015 3.18055e-015 -0 8.367 -8.2066 0.5982 -1.18974 -23.2026 14.6605 2.1923 -43.463 -0.4932 43.5473 79.5568 -40.689 0.7333 -45.8593 -2.6451 -34.2026 64.0541 56.2655 -8.367 -8.2066 0.5982 1.24927 -24.7389 -15.2595 -2.1923 -43.463 -0.4931 -84.1088 83.4422 81.1576 -0.7333 -45.8593 -2.6451 11.2386 36.5596 -15.4178 
-0.0425293 87.24 6.32433 0 21.7712 -0 0 -1.186 -1.5018 -0.248883 1.96821 -0.179581 1.11022e-016 9.964 0.2134 -0.492025 3.93717 -0.350911 0 13.134 -3.2573 -0.492025 3.93718 -0.350911 0 20.686 -1.6905 1.32506e-005 6.99681 3.60891e-006 0 7.238 -0.1237 -3.09558e-007 10.5772 -1.68191e-008 1.7069 20.075 5.0056 5.2002 12.0274 5.03376 13.6458 -0.047 -4.849 -76.2533 -1.81772 7.20031 28.3255 -0.9759 2.2888 -25.6962 6.89452 21.7367 22.1583 -0.53 10.8316 5.22433 2.83813 -28.617 0.786 0.112 2.5817 1.98785e-016 3.97569e-016 3.18055e-015 0.3601 -0.878 4.2331 -7.95139e-016 0 -0 1.8127 -1.216 2.2227 1.98785e-016 5.96354e-016 3.18055e-015 0.9571 1.114 1.7695 1.98785e-016 1.98785e-016 3.18055e-015 4.1246 0.487 4.1451 -9.93923e-016 3.97569e-016 9.54166e-015 3.4052 -1.454 2.7682 4.41391e-032 -3.97569e-016 6.36111e-015 1.4531 -1.795 1.2713 9.93923e-016 3.97569e-016 -3.18055e-015 5.6954 0.21 2.1184 -9.93923e-016 3.97569e-016 9.54166e-015 3.9766 -1.54 2.3863 4.41391e-032 -3.97569e-016 6.36111e-015 1.4042 -1.926 1.125 9.93923e-016 3.97569e-016 -3.18055e-015 2.0956 0.66 -0.3894 1.98785e-016 1.98785e-016 3.18055e-015 5.0395 -0.09 2.4971 -9.93923e-016 3.97569e-016 9.54166e-015 3.7921 -1.552 1.4806 4.41391e-032 -3.97569e-016 6.36111e-015 1.4655 -1.808 0.9609 9.93923e-016 3.97569e-016 -3.18055e-015 4.9141 -1.269 0.3591 -9.93923e-016 3.97569e-016 9.54166e-015 3.1477 -1.685 0.8462 4.41391e-032 -3.97569e-016 6.36111e-015 0.8055 -1.585 0.7955 9.93923e-016 3.97569e-016 -3.18055e-015 -1.7069 20.075 5.0056 3.28162 2.84862 7.08069 -13.6458 -0.047 -4.849 69.4814 29.1442 17.8994 -28.3255 -0.9759 2.2888 -2.41941 7.12736 20.8823 -22.1583 -0.53 10.8316 9.83289 -27.2134 -1.34203 -0.786 0.112 2.5817 1.44907e-006 3.2211e-007 -1.69206e-006 -0.3601 -0.878 4.2331 4.13154e-006 -4.93037e-007 1.15221e-006 -1.8127 -1.216 2.2227 -8.74653e-015 0 -1.59028e-015 -0.9571 1.114 1.7695 -1.76556e-031 6.36111e-015 1.59028e-015 -4.1246 0.487 4.1451 1.44907e-006 3.2211e-007 -1.69206e-006 -3.4052 -1.454 2.7682 4.13154e-006 -4.93037e-007 1.15221e-006 -1.4531 -1.795 1.2713 -5.56597e-015 -3.18055e-015 -3.18055e-015 -5.6954 0.21 2.1184 1.44907e-006 3.2211e-007 -1.69206e-006 -3.9766 -1.54 2.3863 4.13154e-006 -4.93037e-007 1.15221e-006 -1.4042 -1.926 1.125 -5.56597e-015 -3.18055e-015 -3.18055e-015 -2.0956 0.66 -0.3894 -1.76556e-031 6.36111e-015 1.59028e-015 -5.0395 -0.09 2.4971 1.44907e-006 3.2211e-007 -1.69206e-006 -3.7921 -1.552 1.4806 4.13154e-006 -4.93037e-007 1.15221e-006 -1.4655 -1.808 0.9609 -5.56597e-015 -3.18055e-015 -3.18055e-015 -4.9141 -1.269 0.3592 1.44907e-006 3.2211e-007 -1.69206e-006 -3.1477 -1.685 0.8462 4.13154e-006 -4.93037e-007 1.15221e-006 -0.8055 -1.585 0.7955 -5.56597e-015 -3.18055e-015 -3.18055e-015 8.367 -8.2066 0.5982 -1.22134 -22.4956 14.6143 2.1923 -43.463 -0.4932 43.4334 79.542 -40.5749 0.7333 -45.8593 -2.6451 -34.1963 64.0521 56.2592 -8.367 -8.2066 0.5982 1.28972 -23.9886 -15.2051 -2.1923 -43.463 -0.4931 -83.5395 83.438 80.5994 -0.7333 -45.8593 -2.6451 11.2365 36.5525 -15.4148 
-0.0425652 87.263 6.41011 0 21.2456 -0 0 -1.186 -1.5018 -0.250002 2.39629 -0.179106 5.55112e-017 9.964 0.2134 -0.493146 4.79341 -0.348192 -2.22045e-016 13.134 -3.2573 -0.493146 4.79341 -0.348192 0 20.686 -1.6905 1.03895e-005 6.99687 -1.51996e-006 0 7.238 -0.1237 -3.04971e-007 11.2533 -1.25922e-007 1.7069 20.075 5.0056 5.00872 10.6856 4.91807 13.6458 -0.047 -4.849 -76.2534 -1.81771 7.2003 28.3255 -0.9759 2.2888 -25.426 6.79123 21.7299 22.1583 -0.53 10.8316 4.90939 2.63167 -28.6375 0.786 0.112 2.5817 7.95139e-016 -1.98785e-016 3.18055e-015 0.3601 -0.878 4.2331 3.97569e-016 0 -0 1.8127 -1.216 2.2227 3.97569e-016 1.98785e-016 -0 0.9571 1.114 1.7695 2.20695e-032 -3.97569e-016 3.18055e-015 4.1246 0.487 4.1451 1.59028e-015 3.97569e-016 3.18055e-015 3.4052 -1.454 2.7682 9.93923e-016 3.97569e-016 -0 1.4531 -1.795 1.2713 1.98785e-016 1.98785e-016 6.36111e-015 5.6954 0.21 2.1184 1.59028e-015 3.97569e-016 3.18055e-015 3.9766 -1.54 2.3863 9.93923e-016 3.97569e-016 -0 1.4042 -1.926 1.125 1.98785e-016 1.98785e-016 6.36111e-015 2.0956 0.66 -0.3894 2.20695e-032 -3.97569e-016 3.18055e-015 5.0395 -0.09 2.4971 1.59028e-015 3.97569e-016 3.18055e-015 3.7921 -1.552 1.4806 9.93923e-016 3.97569e-016 -0 1.4655 -1.808 0.9609 1.98785e-016 1.98785e-016 6.36111e-015 4.9141 -1.269 0.3591 1.59028e-015 3.97569e-016 3.18055e-015 3.1477 -1.685 0.8462 9.93923e-016 3.97569e-016 -0 0.8055 -1.585 0.7955 1.98785e-016 1.98785e-016 6.36111e-015 -1.7069 20.075 5.0056 4.01161 2.45227 7.12601 -13.6458 -0.047 -4.849 67.9126 28.8946 18.908 -28.3255 -0.9759 2.2888 -2.44192 7.15147 20.8869 -22.1583 -0.53 10.8316 10.3416 -26.1303 -0.390493 -0.786 0.112 2.5817 1.533e-007 -2.35119e-006 3.00503e-007 -0.3601 -0.878 4.2331 1.41029e-007 1.02534e-006 -1.32585e-006 -1.8127 -1.216 2.2227 1.533e-007 -2.35119e-006 3.00503e-007 -0.9571 1.114 1.7695 1.19271e-015 0 -3.18055e-015 -4.1246 0.487 4.1451 1.533e-007 -2.35119e-006 3.00503e-007 -3.4052 -1.454 2.7682 1.41029e-007 1.02534e-006 -1.32585e-006 -1.4531 -1.795 1.2713 1.533e-007 -2.35119e-006 3.00503e-007 -5.6954 0.21 2.1184 1.533e-007 -2.35119e-006 3.00503e-007 -3.9766 -1.54 2.3863 1.41029e-007 1.02534e-006 -1.32585e-006 -1.4042 -1.926 1.125 1.533e-007 -2.35119e-006 3.00503e-007 -2.0956 0.66 -0.3894 1.19271e-015 0 -3.18055e-015 -5.0395 -0.09 2.4971 1.533e-007 -2.35119e-006 3.00503e-007 -3.7921 -1.552 1.4806 1.41029e-007 1.02534e-006 -1.32585e-006 -1.4655 -1.808 0.9609 1.533e-007 -2.35119e-006 3.00503e-007 -4.9141 -1.269 0.3592 1.533e-007 -2.35119e-006 3.00503e-007 -3.1477 -1.685 0.8462 1.41029e-007 1.02534e-006 -1.32585e-006 -0.8055 -1.585 0.7955 1.533e-007 -2.35119e-006 3.00503e-007 8.367 -8.2066 0.5982 -1.25144 -21.7715 14.5699 2.1923 -43.463 -0.4932 43.2567 79.5147 -40.4018 0.7333 -45.8593 -2.6451 -34.1901 64.0503 56.2528 -8.367 -8.2066 0.5982 1.33114 -23.2781 -15.1492 -2.1923 -43.463 -0.4931 -83.3065 83.4394 80.3676 -0.7333 -45.8593 -2.6451 11.2342 36.5456 -15.4118 
-0.0425975 87.2856 6.49553 0 20.72 -0 0 -1.186 -1.5018 -0.251011 2.82232 -0.178574 0 9.964 0.2134 -0.494102 5.64537 -0.345378 0 13.134 -3.2573 -0.494102 5.64537 -0.345379 0 20.686 -1.6905 2.90027e-005 6.99628 1.28e-006 0 7.238 -0.1237 -2.64628e-007 11.9293 -7.36591e-008 1.7069 20.075 5.0056 4.81549 9.34548 4.79844 13.6458 -0.047 -4.849 -76.2534 -1.8177 7.20032 28.3255 -0.9759 2.2888 -25.1555 6.68956 21.7231 22.1583 -0.53 10.8316 4.59444 2.42537 -28.659 0.786 0.112 2.5817 -7.95139e-016 -9.93923e-016 9.54166e-015 0.3601 -0.878 4.2331 -1.10348e-032 1.98785e-016 3.18055e-015 1.8127 -1.216 2.2227 -1.39149e-015 -3.97569e-016 9.54166e-015 0.9571 1.114 1.7695 -7.95139e-016 -5.96354e-016 9.54166e-015 4.1246 0.487 4.1451 -7.95139e-016 0 9.54166e-015 3.4052 -1.454 2.7682 7.95139e-016 0 3.18055e-015 1.4531 -1.795 1.2713 7.95139e-016 0 6.36111e-015 5.6954 0.21 2.1184 -7.95139e-016 0 9.54166e-015 3.9766 -1.54 2.3863 7.95139e-016 0 3.18055e-015 1.4042 -1.926 1.125 7.95139e-016 0 6.36111e-015 2.0956 0.66 -0.3894 -7.95139e-016 -5.96354e-016 9.54166e-015 5.0395 -0.09 2.4971 -7.95139e-016 0 9.54166e-015 3.7921 -1.552 1.4806 7.95139e-016 0 3.18055e-015 1.4655 -1.808 0.9609 7.95139e-016 0 6.36111e-015 4.9141 -1.269 0.3591 -7.95139e-016 0 9.54166e-015 3.1477 -1.685 0.8462 7.95139e-016 0 3.18055e-015 0.8055 -1.585 0.7955 7.95139e-016 0 6.36111e-015 -1.7069 20.075 5.0056 4.74147 2.05657 7.17636 -13.6458 -0.047 -4.849 66.3544 28.6213 19.9049 -28.3255 -0.9759 2.2888 -2.4644 7.17555 20.8915 -22.1583 -0.53 10.8316 10.8254 -25.041 0.540919 -0.786 0.112 2.5817 -3.18055e-015 -9.54166e-015 6.36111e-015 -0.3601 -0.878 4.2331 -5.96354e-015 -3.18055e-015 3.18055e-015 -1.8127 -1.216 2.2227 -2.38542e-015 -3.18055e-015 4.77083e-015 -0.9571 1.114 1.7695 -3.97569e-016 -9.54166e-015 3.18055e-015 -4.1246 0.487 4.1451 -5.1684e-015 -9.54166e-015 9.54166e-015 -3.4052 -1.454 2.7682 -3.57812e-015 -3.18055e-015 -0 -1.4531 -1.795 1.2713 -2.38542e-015 0 1.59028e-015 -5.6954 0.21 2.1184 -5.1684e-015 -9.54166e-015 9.54166e-015 -3.9766 -1.54 2.3863 -3.57812e-015 -3.18055e-015 -0 -1.4042 -1.926 1.125 -2.38542e-015 0 1.59028e-015 -2.0956 0.66 -0.3894 -3.97569e-016 -9.54166e-015 3.18055e-015 -5.0395 -0.09 2.4971 -5.1684e-015 -9.54166e-015 9.54166e-015 -3.7921 -1.552 1.4806 -3.57812e-015 -3.18055e-015 -0 -1.4655 -1.808 0.9609 -2.38542e-015 0 1.59028e-015 -4.9141 -1.269 0.3592 -5.1684e-015 -9.54166e-015 9.54166e-015 -3.1477 -1.685 0.8462 -3.57812e-015 -3.18055e-015 -0 -0.8055 -1.585 0.7955 -2.38542e-015 0 1.59028e-015 8.367 -8.2066 0.5982 -1.28014 -21.0312 14.5271 2.1923 -43.463 -0.4932 43.0215 79.4753 -40.1741 0.7333 -45.8593 -2.6451 -34.1838 64.0484 56.2465 -8.367 -8.2066 0.5982 1.3706 -22.5446 -15.0955 -2.1923 -43.463 -0.4931 -82.8758 83.4369 79.9436 -0.7333 -45.8593 -2.6451 11.232 36.5386 -15.4088 
